<mxfile host="app.diagrams.net" modified="2024-01-20T19:52:58.575Z" agent="Mozilla/5.0 (Windows NT 10.0; Win64; x64; rv:121.0) Gecko/20100101 Firefox/121.0" etag="jglgbzoyXhCMQa6gN9by" version="22.1.18" type="device">
  <diagram name="Página-1" id="rHriM_KhmRp9se_LCoo0">
    <mxGraphModel dx="1194" dy="716" grid="1" gridSize="10" guides="1" tooltips="1" connect="1" arrows="1" fold="1" page="1" pageScale="1" pageWidth="827" pageHeight="1169" math="0" shadow="0">
      <root>
        <mxCell id="0" />
        <mxCell id="1" parent="0" />
        <mxCell id="YeibOzF-3ed2LdL4MGr_-51" value="" style="sketch=0;aspect=fixed;pointerEvents=1;shadow=0;dashed=0;html=1;strokeColor=#0e8088;labelPosition=center;verticalLabelPosition=bottom;verticalAlign=top;align=center;fillColor=#b0e3e6;shape=mxgraph.azure.server;strokeWidth=2;" vertex="1" parent="1">
          <mxGeometry x="920" y="569.9000000000001" width="167" height="50.1" as="geometry" />
        </mxCell>
        <mxCell id="YeibOzF-3ed2LdL4MGr_-13" value="" style="edgeStyle=orthogonalEdgeStyle;rounded=0;orthogonalLoop=1;jettySize=auto;html=1;" edge="1" parent="1" source="YeibOzF-3ed2LdL4MGr_-6" target="YeibOzF-3ed2LdL4MGr_-3">
          <mxGeometry relative="1" as="geometry" />
        </mxCell>
        <mxCell id="YeibOzF-3ed2LdL4MGr_-6" value="" style="rounded=0;whiteSpace=wrap;html=1;fillColor=#dae8fc;strokeColor=#6c8ebf;strokeWidth=4;" vertex="1" parent="1">
          <mxGeometry x="90" y="280" width="120" height="60" as="geometry" />
        </mxCell>
        <mxCell id="YeibOzF-3ed2LdL4MGr_-4" value="" style="ellipse;whiteSpace=wrap;html=1;aspect=fixed;strokeWidth=4;fillColor=#dae8fc;strokeColor=#6c8ebf;" vertex="1" parent="1">
          <mxGeometry x="80" y="85" width="140" height="140" as="geometry" />
        </mxCell>
        <mxCell id="YeibOzF-3ed2LdL4MGr_-3" value="" style="shape=mxgraph.cisco.buildings.generic_building;html=1;pointerEvents=1;dashed=0;strokeWidth=2;verticalLabelPosition=bottom;verticalAlign=top;align=center;outlineConnect=0;fillColor=#647687;strokeColor=#314354;fontColor=#ffffff;" vertex="1" parent="1">
          <mxGeometry x="113" y="104" width="70" height="96" as="geometry" />
        </mxCell>
        <mxCell id="YeibOzF-3ed2LdL4MGr_-5" value="" style="html=1;verticalLabelPosition=bottom;align=center;labelBackgroundColor=#ffffff;verticalAlign=top;strokeWidth=2;strokeColor=#0080F0;shadow=0;dashed=0;shape=mxgraph.ios7.icons.tools;pointerEvents=1" vertex="1" parent="1">
          <mxGeometry x="135.15" y="295.15" width="29.7" height="29.7" as="geometry" />
        </mxCell>
        <mxCell id="YeibOzF-3ed2LdL4MGr_-7" value="" style="endArrow=classic;html=1;rounded=0;strokeWidth=4;" edge="1" parent="1">
          <mxGeometry width="50" height="50" relative="1" as="geometry">
            <mxPoint x="150.5" y="228" as="sourcePoint" />
            <mxPoint x="150.5" y="278" as="targetPoint" />
          </mxGeometry>
        </mxCell>
        <mxCell id="YeibOzF-3ed2LdL4MGr_-8" value="APP. SERVICES" style="text;html=1;strokeColor=none;fillColor=none;align=center;verticalAlign=middle;whiteSpace=wrap;rounded=0;fontSize=16;fontStyle=1" vertex="1" parent="1">
          <mxGeometry x="121" y="351" width="60" height="30" as="geometry" />
        </mxCell>
        <mxCell id="YeibOzF-3ed2LdL4MGr_-9" value="" style="sketch=0;aspect=fixed;pointerEvents=1;shadow=0;dashed=0;html=1;strokeColor=#6c8ebf;labelPosition=center;verticalLabelPosition=bottom;verticalAlign=top;align=center;fillColor=#dae8fc;shape=mxgraph.azure.server;strokeWidth=2;" vertex="1" parent="1">
          <mxGeometry x="70" y="468" width="167" height="50.1" as="geometry" />
        </mxCell>
        <mxCell id="YeibOzF-3ed2LdL4MGr_-10" value="" style="sketch=0;aspect=fixed;pointerEvents=1;shadow=0;dashed=0;html=1;strokeColor=#6c8ebf;labelPosition=center;verticalLabelPosition=bottom;verticalAlign=top;align=center;fillColor=#dae8fc;shape=mxgraph.azure.server;strokeWidth=2;" vertex="1" parent="1">
          <mxGeometry x="70" y="518.1" width="167" height="50.1" as="geometry" />
        </mxCell>
        <mxCell id="YeibOzF-3ed2LdL4MGr_-11" value="" style="sketch=0;aspect=fixed;pointerEvents=1;shadow=0;dashed=0;html=1;strokeColor=#6c8ebf;labelPosition=center;verticalLabelPosition=bottom;verticalAlign=top;align=center;fillColor=#dae8fc;shape=mxgraph.azure.server;strokeWidth=2;" vertex="1" parent="1">
          <mxGeometry x="70" y="568.2" width="167" height="50.1" as="geometry" />
        </mxCell>
        <mxCell id="YeibOzF-3ed2LdL4MGr_-14" value="" style="endArrow=classic;html=1;rounded=0;strokeWidth=4;" edge="1" parent="1">
          <mxGeometry width="50" height="50" relative="1" as="geometry">
            <mxPoint x="123.5" y="390" as="sourcePoint" />
            <mxPoint x="123" y="470" as="targetPoint" />
          </mxGeometry>
        </mxCell>
        <mxCell id="YeibOzF-3ed2LdL4MGr_-15" value="" style="endArrow=none;html=1;rounded=0;strokeWidth=4;endFill=0;startArrow=classic;startFill=1;" edge="1" parent="1">
          <mxGeometry width="50" height="50" relative="1" as="geometry">
            <mxPoint x="181.5" y="390" as="sourcePoint" />
            <mxPoint x="181" y="470" as="targetPoint" />
          </mxGeometry>
        </mxCell>
        <mxCell id="YeibOzF-3ed2LdL4MGr_-16" value="ARQUITETURA MONOLÍTICA" style="text;html=1;strokeColor=none;fillColor=none;align=center;verticalAlign=middle;whiteSpace=wrap;rounded=0;fontSize=16;fontStyle=1" vertex="1" parent="1">
          <mxGeometry x="33.5" y="20" width="240" height="30" as="geometry" />
        </mxCell>
        <mxCell id="YeibOzF-3ed2LdL4MGr_-17" value="BARE METAL" style="text;html=1;strokeColor=none;fillColor=none;align=center;verticalAlign=middle;whiteSpace=wrap;rounded=0;fontSize=16;fontStyle=1" vertex="1" parent="1">
          <mxGeometry x="95.5" y="640" width="109" height="30" as="geometry" />
        </mxCell>
        <mxCell id="YeibOzF-3ed2LdL4MGr_-18" value="" style="ellipse;whiteSpace=wrap;html=1;aspect=fixed;strokeWidth=4;fillColor=#b0e3e6;strokeColor=#0e8088;" vertex="1" parent="1">
          <mxGeometry x="780" y="85" width="140" height="140" as="geometry" />
        </mxCell>
        <mxCell id="YeibOzF-3ed2LdL4MGr_-19" value="" style="shape=mxgraph.cisco.buildings.generic_building;html=1;pointerEvents=1;dashed=0;strokeWidth=2;verticalLabelPosition=bottom;verticalAlign=top;align=center;outlineConnect=0;fillColor=#647687;strokeColor=#314354;fontColor=#ffffff;" vertex="1" parent="1">
          <mxGeometry x="813" y="104" width="70" height="96" as="geometry" />
        </mxCell>
        <mxCell id="YeibOzF-3ed2LdL4MGr_-23" value="" style="rounded=1;whiteSpace=wrap;html=1;fillColor=#b0e3e6;strokeColor=#0e8088;" vertex="1" parent="1">
          <mxGeometry x="950" y="584.95" width="20" height="20" as="geometry" />
        </mxCell>
        <mxCell id="YeibOzF-3ed2LdL4MGr_-24" value="" style="rounded=1;whiteSpace=wrap;html=1;fillColor=#fad7ac;strokeColor=#b46504;" vertex="1" parent="1">
          <mxGeometry x="980" y="584.95" width="20" height="20" as="geometry" />
        </mxCell>
        <mxCell id="YeibOzF-3ed2LdL4MGr_-25" value="" style="rounded=1;whiteSpace=wrap;html=1;fillColor=#fad7ac;strokeColor=#b46504;" vertex="1" parent="1">
          <mxGeometry x="1010" y="584.95" width="20" height="20" as="geometry" />
        </mxCell>
        <mxCell id="YeibOzF-3ed2LdL4MGr_-31" value="" style="sketch=0;aspect=fixed;pointerEvents=1;shadow=0;dashed=0;html=1;strokeColor=#0e8088;labelPosition=center;verticalLabelPosition=bottom;verticalAlign=top;align=center;fillColor=#b0e3e6;shape=mxgraph.azure.server;strokeWidth=2;" vertex="1" parent="1">
          <mxGeometry x="366" y="468" width="167" height="50.1" as="geometry" />
        </mxCell>
        <mxCell id="YeibOzF-3ed2LdL4MGr_-32" value="" style="sketch=0;aspect=fixed;pointerEvents=1;shadow=0;dashed=0;html=1;strokeColor=#0e8088;labelPosition=center;verticalLabelPosition=bottom;verticalAlign=top;align=center;fillColor=#b0e3e6;shape=mxgraph.azure.server;strokeWidth=2;" vertex="1" parent="1">
          <mxGeometry x="366" y="518.1" width="167" height="50.1" as="geometry" />
        </mxCell>
        <mxCell id="YeibOzF-3ed2LdL4MGr_-33" value="" style="sketch=0;aspect=fixed;pointerEvents=1;shadow=0;dashed=0;html=1;strokeColor=#0e8088;labelPosition=center;verticalLabelPosition=bottom;verticalAlign=top;align=center;fillColor=#b0e3e6;shape=mxgraph.azure.server;strokeWidth=2;" vertex="1" parent="1">
          <mxGeometry x="366" y="568.2" width="167" height="50.1" as="geometry" />
        </mxCell>
        <mxCell id="YeibOzF-3ed2LdL4MGr_-34" value="" style="rounded=1;whiteSpace=wrap;html=1;fillColor=#fad7ac;strokeColor=#b46504;" vertex="1" parent="1">
          <mxGeometry x="396" y="476.05" width="20" height="20" as="geometry" />
        </mxCell>
        <mxCell id="YeibOzF-3ed2LdL4MGr_-35" value="" style="rounded=1;whiteSpace=wrap;html=1;fillColor=#b1ddf0;strokeColor=#10739e;" vertex="1" parent="1">
          <mxGeometry x="426" y="476.05" width="20" height="20" as="geometry" />
        </mxCell>
        <mxCell id="YeibOzF-3ed2LdL4MGr_-36" value="" style="rounded=1;whiteSpace=wrap;html=1;fillColor=#b1ddf0;strokeColor=#10739e;" vertex="1" parent="1">
          <mxGeometry x="456" y="476.05" width="20" height="20" as="geometry" />
        </mxCell>
        <mxCell id="YeibOzF-3ed2LdL4MGr_-37" value="" style="rounded=1;whiteSpace=wrap;html=1;fillColor=#b1ddf0;strokeColor=#10739e;" vertex="1" parent="1">
          <mxGeometry x="396" y="526.05" width="20" height="20" as="geometry" />
        </mxCell>
        <mxCell id="YeibOzF-3ed2LdL4MGr_-38" value="" style="rounded=1;whiteSpace=wrap;html=1;fillColor=#b1ddf0;strokeColor=#10739e;" vertex="1" parent="1">
          <mxGeometry x="426" y="526.05" width="20" height="20" as="geometry" />
        </mxCell>
        <mxCell id="YeibOzF-3ed2LdL4MGr_-39" value="" style="rounded=1;whiteSpace=wrap;html=1;fillColor=#b1ddf0;strokeColor=#10739e;" vertex="1" parent="1">
          <mxGeometry x="456" y="526.05" width="20" height="20" as="geometry" />
        </mxCell>
        <mxCell id="YeibOzF-3ed2LdL4MGr_-40" value="" style="sketch=0;aspect=fixed;pointerEvents=1;shadow=0;dashed=0;html=1;strokeColor=#0e8088;labelPosition=center;verticalLabelPosition=bottom;verticalAlign=top;align=center;fillColor=#b0e3e6;shape=mxgraph.azure.server;strokeWidth=2;" vertex="1" parent="1">
          <mxGeometry x="580" y="468" width="167" height="50.1" as="geometry" />
        </mxCell>
        <mxCell id="YeibOzF-3ed2LdL4MGr_-41" value="" style="sketch=0;aspect=fixed;pointerEvents=1;shadow=0;dashed=0;html=1;strokeColor=#0e8088;labelPosition=center;verticalLabelPosition=bottom;verticalAlign=top;align=center;fillColor=#b0e3e6;shape=mxgraph.azure.server;strokeWidth=2;" vertex="1" parent="1">
          <mxGeometry x="580" y="518.1" width="167" height="50.1" as="geometry" />
        </mxCell>
        <mxCell id="YeibOzF-3ed2LdL4MGr_-42" value="" style="sketch=0;aspect=fixed;pointerEvents=1;shadow=0;dashed=0;html=1;strokeColor=#0e8088;labelPosition=center;verticalLabelPosition=bottom;verticalAlign=top;align=center;fillColor=#b0e3e6;shape=mxgraph.azure.server;strokeWidth=2;" vertex="1" parent="1">
          <mxGeometry x="580" y="568.2" width="167" height="50.1" as="geometry" />
        </mxCell>
        <mxCell id="YeibOzF-3ed2LdL4MGr_-43" value="" style="rounded=1;whiteSpace=wrap;html=1;fillColor=#fad7ac;strokeColor=#b46504;" vertex="1" parent="1">
          <mxGeometry x="610" y="533.15" width="20" height="20" as="geometry" />
        </mxCell>
        <mxCell id="YeibOzF-3ed2LdL4MGr_-44" value="" style="rounded=1;whiteSpace=wrap;html=1;fillColor=#b1ddf0;strokeColor=#10739e;" vertex="1" parent="1">
          <mxGeometry x="640" y="533.15" width="20" height="20" as="geometry" />
        </mxCell>
        <mxCell id="YeibOzF-3ed2LdL4MGr_-45" value="" style="rounded=1;whiteSpace=wrap;html=1;fillColor=#b1ddf0;strokeColor=#10739e;" vertex="1" parent="1">
          <mxGeometry x="670" y="533.15" width="20" height="20" as="geometry" />
        </mxCell>
        <mxCell id="YeibOzF-3ed2LdL4MGr_-46" value="" style="rounded=1;whiteSpace=wrap;html=1;fillColor=#b0e3e6;strokeColor=#0e8088;" vertex="1" parent="1">
          <mxGeometry x="610" y="585" width="20" height="20" as="geometry" />
        </mxCell>
        <mxCell id="YeibOzF-3ed2LdL4MGr_-47" value="" style="rounded=1;whiteSpace=wrap;html=1;fillColor=#b1ddf0;strokeColor=#10739e;" vertex="1" parent="1">
          <mxGeometry x="640" y="585" width="20" height="20" as="geometry" />
        </mxCell>
        <mxCell id="YeibOzF-3ed2LdL4MGr_-48" value="" style="rounded=1;whiteSpace=wrap;html=1;fillColor=#fad7ac;strokeColor=#b46504;" vertex="1" parent="1">
          <mxGeometry x="670" y="585" width="20" height="20" as="geometry" />
        </mxCell>
        <mxCell id="YeibOzF-3ed2LdL4MGr_-49" value="" style="sketch=0;aspect=fixed;pointerEvents=1;shadow=0;dashed=0;html=1;strokeColor=#0e8088;labelPosition=center;verticalLabelPosition=bottom;verticalAlign=top;align=center;fillColor=#b0e3e6;shape=mxgraph.azure.server;strokeWidth=2;" vertex="1" parent="1">
          <mxGeometry x="920" y="469.7" width="167" height="50.1" as="geometry" />
        </mxCell>
        <mxCell id="YeibOzF-3ed2LdL4MGr_-50" value="" style="sketch=0;aspect=fixed;pointerEvents=1;shadow=0;dashed=0;html=1;strokeColor=#0e8088;labelPosition=center;verticalLabelPosition=bottom;verticalAlign=top;align=center;fillColor=#b0e3e6;shape=mxgraph.azure.server;strokeWidth=2;" vertex="1" parent="1">
          <mxGeometry x="920" y="519.8000000000001" width="167" height="50.1" as="geometry" />
        </mxCell>
        <mxCell id="YeibOzF-3ed2LdL4MGr_-52" value="" style="rounded=1;whiteSpace=wrap;html=1;fillColor=#b0e3e6;strokeColor=#0e8088;" vertex="1" parent="1">
          <mxGeometry x="950" y="484.75" width="20" height="20" as="geometry" />
        </mxCell>
        <mxCell id="YeibOzF-3ed2LdL4MGr_-53" value="" style="rounded=1;whiteSpace=wrap;html=1;fillColor=#fad7ac;strokeColor=#b46504;" vertex="1" parent="1">
          <mxGeometry x="980" y="484.75" width="20" height="20" as="geometry" />
        </mxCell>
        <mxCell id="YeibOzF-3ed2LdL4MGr_-54" value="" style="rounded=1;whiteSpace=wrap;html=1;fillColor=#b1ddf0;strokeColor=#10739e;" vertex="1" parent="1">
          <mxGeometry x="1010" y="484.75" width="20" height="20" as="geometry" />
        </mxCell>
        <mxCell id="YeibOzF-3ed2LdL4MGr_-55" value="" style="rounded=1;whiteSpace=wrap;html=1;fillColor=#fad7ac;strokeColor=#b46504;" vertex="1" parent="1">
          <mxGeometry x="950" y="534.85" width="20" height="20" as="geometry" />
        </mxCell>
        <mxCell id="YeibOzF-3ed2LdL4MGr_-56" value="" style="rounded=1;whiteSpace=wrap;html=1;fillColor=#b1ddf0;strokeColor=#10739e;" vertex="1" parent="1">
          <mxGeometry x="980" y="534.85" width="20" height="20" as="geometry" />
        </mxCell>
        <mxCell id="YeibOzF-3ed2LdL4MGr_-57" value="" style="rounded=1;whiteSpace=wrap;html=1;fillColor=#b1ddf0;strokeColor=#10739e;" vertex="1" parent="1">
          <mxGeometry x="1010" y="534.85" width="20" height="20" as="geometry" />
        </mxCell>
        <mxCell id="YeibOzF-3ed2LdL4MGr_-58" value="" style="endArrow=none;html=1;rounded=0;strokeWidth=4;startArrow=classic;startFill=1;" edge="1" parent="1">
          <mxGeometry width="50" height="50" relative="1" as="geometry">
            <mxPoint x="460" y="270" as="sourcePoint" />
            <mxPoint x="770" y="170" as="targetPoint" />
          </mxGeometry>
        </mxCell>
        <mxCell id="YeibOzF-3ed2LdL4MGr_-59" value="" style="rounded=0;whiteSpace=wrap;html=1;fillColor=#b0e3e6;strokeColor=#0e8088;strokeWidth=4;" vertex="1" parent="1">
          <mxGeometry x="389.5" y="280" width="120" height="60" as="geometry" />
        </mxCell>
        <mxCell id="YeibOzF-3ed2LdL4MGr_-60" value="" style="rounded=0;whiteSpace=wrap;html=1;fillColor=#b0e3e6;strokeColor=#0e8088;strokeWidth=4;" vertex="1" parent="1">
          <mxGeometry x="603.5" y="280" width="120" height="60" as="geometry" />
        </mxCell>
        <mxCell id="YeibOzF-3ed2LdL4MGr_-61" value="" style="rounded=0;whiteSpace=wrap;html=1;fillColor=#b0e3e6;strokeColor=#0e8088;strokeWidth=4;" vertex="1" parent="1">
          <mxGeometry x="930" y="280" width="120" height="60" as="geometry" />
        </mxCell>
        <mxCell id="YeibOzF-3ed2LdL4MGr_-62" value="" style="rounded=0;whiteSpace=wrap;html=1;fillColor=#b0e3e6;strokeColor=#0e8088;strokeWidth=4;" vertex="1" parent="1">
          <mxGeometry x="1220" y="280" width="120" height="60" as="geometry" />
        </mxCell>
        <mxCell id="YeibOzF-3ed2LdL4MGr_-63" value="" style="html=1;verticalLabelPosition=bottom;align=center;labelBackgroundColor=#ffffff;verticalAlign=top;strokeWidth=2;strokeColor=#0e8088;shadow=0;dashed=0;shape=mxgraph.ios7.icons.cloud;fillColor=#b0e3e6;" vertex="1" parent="1">
          <mxGeometry x="1160" y="468" width="240" height="152" as="geometry" />
        </mxCell>
        <mxCell id="YeibOzF-3ed2LdL4MGr_-64" value="" style="rounded=1;whiteSpace=wrap;html=1;fillColor=#b1ddf0;strokeColor=#10739e;" vertex="1" parent="1">
          <mxGeometry x="1240" y="549.9" width="20" height="20" as="geometry" />
        </mxCell>
        <mxCell id="YeibOzF-3ed2LdL4MGr_-65" value="" style="rounded=1;whiteSpace=wrap;html=1;fillColor=#b1ddf0;strokeColor=#10739e;" vertex="1" parent="1">
          <mxGeometry x="1250" y="559.9" width="20" height="20" as="geometry" />
        </mxCell>
        <mxCell id="YeibOzF-3ed2LdL4MGr_-66" value="" style="rounded=1;whiteSpace=wrap;html=1;fillColor=#b1ddf0;strokeColor=#10739e;" vertex="1" parent="1">
          <mxGeometry x="1260" y="569.9" width="20" height="20" as="geometry" />
        </mxCell>
        <mxCell id="YeibOzF-3ed2LdL4MGr_-67" value="" style="rounded=1;whiteSpace=wrap;html=1;fillColor=#fad7ac;strokeColor=#b46504;" vertex="1" parent="1">
          <mxGeometry x="1310" y="512.8" width="20" height="20" as="geometry" />
        </mxCell>
        <mxCell id="YeibOzF-3ed2LdL4MGr_-68" value="" style="rounded=1;whiteSpace=wrap;html=1;fillColor=#fad7ac;strokeColor=#b46504;" vertex="1" parent="1">
          <mxGeometry x="1331" y="559.9" width="20" height="20" as="geometry" />
        </mxCell>
        <mxCell id="YeibOzF-3ed2LdL4MGr_-69" value="" style="rounded=1;whiteSpace=wrap;html=1;fillColor=#fad7ac;strokeColor=#b46504;" vertex="1" parent="1">
          <mxGeometry x="1341" y="569.9" width="20" height="20" as="geometry" />
        </mxCell>
        <mxCell id="YeibOzF-3ed2LdL4MGr_-70" value="" style="rounded=1;whiteSpace=wrap;html=1;fillColor=#fad7ac;strokeColor=#b46504;" vertex="1" parent="1">
          <mxGeometry x="1351" y="579.9" width="20" height="20" as="geometry" />
        </mxCell>
        <mxCell id="YeibOzF-3ed2LdL4MGr_-71" value="" style="rounded=1;whiteSpace=wrap;html=1;fillColor=#b1ddf0;strokeColor=#10739e;arcSize=0;" vertex="1" parent="1">
          <mxGeometry x="1190" y="569.9" width="20" height="20" as="geometry" />
        </mxCell>
        <mxCell id="YeibOzF-3ed2LdL4MGr_-73" value="" style="endArrow=none;html=1;rounded=0;strokeWidth=4;startArrow=classic;startFill=1;" edge="1" parent="1">
          <mxGeometry width="50" height="50" relative="1" as="geometry">
            <mxPoint x="980" y="270" as="sourcePoint" />
            <mxPoint x="910" y="210" as="targetPoint" />
          </mxGeometry>
        </mxCell>
        <mxCell id="YeibOzF-3ed2LdL4MGr_-75" value="" style="endArrow=none;html=1;rounded=0;strokeWidth=4;startArrow=classic;startFill=1;" edge="1" parent="1">
          <mxGeometry width="50" height="50" relative="1" as="geometry">
            <mxPoint x="680" y="270" as="sourcePoint" />
            <mxPoint x="780" y="180" as="targetPoint" />
          </mxGeometry>
        </mxCell>
        <mxCell id="YeibOzF-3ed2LdL4MGr_-76" value="" style="endArrow=none;html=1;rounded=0;strokeWidth=4;startArrow=classic;startFill=1;" edge="1" parent="1">
          <mxGeometry width="50" height="50" relative="1" as="geometry">
            <mxPoint x="1280" y="270" as="sourcePoint" />
            <mxPoint x="920" y="165" as="targetPoint" />
          </mxGeometry>
        </mxCell>
        <mxCell id="YeibOzF-3ed2LdL4MGr_-78" value="" style="sketch=0;aspect=fixed;pointerEvents=1;shadow=0;dashed=0;html=1;strokeColor=none;labelPosition=center;verticalLabelPosition=bottom;verticalAlign=top;align=center;shape=mxgraph.azure.startup_task;fillColor=#0078D7;" vertex="1" parent="1">
          <mxGeometry x="426" y="285" width="48" height="50" as="geometry" />
        </mxCell>
        <mxCell id="YeibOzF-3ed2LdL4MGr_-79" value="" style="sketch=0;aspect=fixed;pointerEvents=1;shadow=0;dashed=0;html=1;strokeColor=none;labelPosition=center;verticalLabelPosition=bottom;verticalAlign=top;align=center;shape=mxgraph.azure.startup_task;fillColor=#0078D7;" vertex="1" parent="1">
          <mxGeometry x="1256" y="285" width="48" height="50" as="geometry" />
        </mxCell>
        <mxCell id="YeibOzF-3ed2LdL4MGr_-80" value="" style="sketch=0;aspect=fixed;pointerEvents=1;shadow=0;dashed=0;html=1;strokeColor=none;labelPosition=center;verticalLabelPosition=bottom;verticalAlign=top;align=center;shape=mxgraph.azure.startup_task;fillColor=#0078D7;" vertex="1" parent="1">
          <mxGeometry x="642" y="285" width="48" height="50" as="geometry" />
        </mxCell>
        <mxCell id="YeibOzF-3ed2LdL4MGr_-81" value="" style="sketch=0;aspect=fixed;pointerEvents=1;shadow=0;dashed=0;html=1;strokeColor=none;labelPosition=center;verticalLabelPosition=bottom;verticalAlign=top;align=center;shape=mxgraph.azure.startup_task;fillColor=#0078D7;" vertex="1" parent="1">
          <mxGeometry x="976" y="285" width="48" height="50" as="geometry" />
        </mxCell>
        <mxCell id="YeibOzF-3ed2LdL4MGr_-82" value="ARQUITETURA DE MICROSERVIÇOS" style="text;html=1;strokeColor=none;fillColor=none;align=center;verticalAlign=middle;whiteSpace=wrap;rounded=0;fontSize=16;fontStyle=1" vertex="1" parent="1">
          <mxGeometry x="680" y="20" width="290" height="30" as="geometry" />
        </mxCell>
        <mxCell id="YeibOzF-3ed2LdL4MGr_-83" value="MICROSERVIÇOS" style="text;html=1;strokeColor=none;fillColor=none;align=center;verticalAlign=middle;whiteSpace=wrap;rounded=0;fontSize=16;fontStyle=1" vertex="1" parent="1">
          <mxGeometry x="379.25" y="360" width="140.5" height="30" as="geometry" />
        </mxCell>
        <mxCell id="YeibOzF-3ed2LdL4MGr_-84" value="MICROSERVIÇOS" style="text;html=1;strokeColor=none;fillColor=none;align=center;verticalAlign=middle;whiteSpace=wrap;rounded=0;fontSize=16;fontStyle=1" vertex="1" parent="1">
          <mxGeometry x="603.5" y="360" width="140.5" height="30" as="geometry" />
        </mxCell>
        <mxCell id="YeibOzF-3ed2LdL4MGr_-85" value="MICROSERVIÇOS" style="text;html=1;strokeColor=none;fillColor=none;align=center;verticalAlign=middle;whiteSpace=wrap;rounded=0;fontSize=16;fontStyle=1" vertex="1" parent="1">
          <mxGeometry x="920" y="360" width="140.5" height="30" as="geometry" />
        </mxCell>
        <mxCell id="YeibOzF-3ed2LdL4MGr_-86" value="MICROSERVIÇOS" style="text;html=1;strokeColor=none;fillColor=none;align=center;verticalAlign=middle;whiteSpace=wrap;rounded=0;fontSize=16;fontStyle=1" vertex="1" parent="1">
          <mxGeometry x="1210.5" y="360" width="140.5" height="30" as="geometry" />
        </mxCell>
        <mxCell id="YeibOzF-3ed2LdL4MGr_-87" value="" style="endArrow=classic;html=1;rounded=0;strokeWidth=4;" edge="1" parent="1">
          <mxGeometry width="50" height="50" relative="1" as="geometry">
            <mxPoint x="421" y="388" as="sourcePoint" />
            <mxPoint x="420.5" y="468" as="targetPoint" />
          </mxGeometry>
        </mxCell>
        <mxCell id="YeibOzF-3ed2LdL4MGr_-88" value="" style="endArrow=none;html=1;rounded=0;strokeWidth=4;endFill=0;startArrow=classic;startFill=1;" edge="1" parent="1">
          <mxGeometry width="50" height="50" relative="1" as="geometry">
            <mxPoint x="479" y="388" as="sourcePoint" />
            <mxPoint x="478.5" y="468" as="targetPoint" />
          </mxGeometry>
        </mxCell>
        <mxCell id="YeibOzF-3ed2LdL4MGr_-89" value="" style="endArrow=classic;html=1;rounded=0;strokeWidth=4;" edge="1" parent="1">
          <mxGeometry width="50" height="50" relative="1" as="geometry">
            <mxPoint x="637" y="388" as="sourcePoint" />
            <mxPoint x="636.5" y="468" as="targetPoint" />
          </mxGeometry>
        </mxCell>
        <mxCell id="YeibOzF-3ed2LdL4MGr_-90" value="" style="endArrow=none;html=1;rounded=0;strokeWidth=4;endFill=0;startArrow=classic;startFill=1;" edge="1" parent="1">
          <mxGeometry width="50" height="50" relative="1" as="geometry">
            <mxPoint x="695" y="388" as="sourcePoint" />
            <mxPoint x="694.5" y="468" as="targetPoint" />
          </mxGeometry>
        </mxCell>
        <mxCell id="YeibOzF-3ed2LdL4MGr_-91" value="" style="endArrow=classic;html=1;rounded=0;strokeWidth=4;" edge="1" parent="1">
          <mxGeometry width="50" height="50" relative="1" as="geometry">
            <mxPoint x="974.5" y="388" as="sourcePoint" />
            <mxPoint x="974" y="468" as="targetPoint" />
          </mxGeometry>
        </mxCell>
        <mxCell id="YeibOzF-3ed2LdL4MGr_-92" value="" style="endArrow=none;html=1;rounded=0;strokeWidth=4;endFill=0;startArrow=classic;startFill=1;" edge="1" parent="1">
          <mxGeometry width="50" height="50" relative="1" as="geometry">
            <mxPoint x="1032.5" y="388" as="sourcePoint" />
            <mxPoint x="1032" y="468" as="targetPoint" />
          </mxGeometry>
        </mxCell>
        <mxCell id="YeibOzF-3ed2LdL4MGr_-93" value="" style="endArrow=classic;html=1;rounded=0;strokeWidth=4;" edge="1" parent="1">
          <mxGeometry width="50" height="50" relative="1" as="geometry">
            <mxPoint x="1260.5" y="390" as="sourcePoint" />
            <mxPoint x="1260" y="470" as="targetPoint" />
          </mxGeometry>
        </mxCell>
        <mxCell id="YeibOzF-3ed2LdL4MGr_-94" value="" style="endArrow=none;html=1;rounded=0;strokeWidth=4;endFill=0;startArrow=classic;startFill=1;" edge="1" parent="1">
          <mxGeometry width="50" height="50" relative="1" as="geometry">
            <mxPoint x="1318.5" y="390" as="sourcePoint" />
            <mxPoint x="1318" y="470" as="targetPoint" />
          </mxGeometry>
        </mxCell>
        <mxCell id="YeibOzF-3ed2LdL4MGr_-95" value="BARE METAL" style="text;html=1;strokeColor=none;fillColor=none;align=center;verticalAlign=middle;whiteSpace=wrap;rounded=0;fontSize=16;fontStyle=1" vertex="1" parent="1">
          <mxGeometry x="395" y="640" width="109" height="30" as="geometry" />
        </mxCell>
        <mxCell id="YeibOzF-3ed2LdL4MGr_-96" value="VIRTUALIZADO APLICAÇÕES" style="text;html=1;strokeColor=none;fillColor=none;align=center;verticalAlign=middle;whiteSpace=wrap;rounded=0;fontSize=16;fontStyle=1" vertex="1" parent="1">
          <mxGeometry x="609" y="640" width="109" height="30" as="geometry" />
        </mxCell>
        <mxCell id="YeibOzF-3ed2LdL4MGr_-97" value="CLOUD" style="text;html=1;strokeColor=none;fillColor=none;align=center;verticalAlign=middle;whiteSpace=wrap;rounded=0;fontSize=16;fontStyle=1" vertex="1" parent="1">
          <mxGeometry x="1225.5" y="650" width="109" height="30" as="geometry" />
        </mxCell>
        <mxCell id="YeibOzF-3ed2LdL4MGr_-98" value="CONTAINER" style="text;html=1;strokeColor=none;fillColor=none;align=center;verticalAlign=middle;whiteSpace=wrap;rounded=0;fontSize=16;fontStyle=1" vertex="1" parent="1">
          <mxGeometry x="955.5" y="650" width="109" height="30" as="geometry" />
        </mxCell>
        <mxCell id="YeibOzF-3ed2LdL4MGr_-99" value="" style="verticalLabelPosition=bottom;verticalAlign=top;html=1;shape=mxgraph.basic.x;fillColor=#fad9d5;strokeColor=#ae4132;" vertex="1" parent="1">
          <mxGeometry x="273.5" y="360" width="50" height="50" as="geometry" />
        </mxCell>
      </root>
    </mxGraphModel>
  </diagram>
</mxfile>
